<svg width="30" height="30" viewBox="0 0 30 30" fill="none" xmlns="http://www.w3.org/2000/svg">
<circle cx="15" cy="15" r="15" fill="#F0F0F0"/>
<g clip-path="url(#clip0_3306_4415)">
<path d="M10.088 20.3645H18.4058L18.0085 19.0783L18.9588 19.8938L19.8297 20.6743L21.4163 22.0002V9.44395C21.3767 8.66345 20.7047 8.0002 19.8717 8.0002L10.0909 8.00195C9.25851 8.00195 8.58301 8.66636 8.58301 9.44686V18.9202C8.58301 19.7433 9.25734 20.3645 10.088 20.3645ZM16.241 11.3153L16.2218 11.3223L16.2288 11.3153H16.241ZM11.7896 12.0555C12.8588 11.2774 13.8499 11.3147 13.8499 11.3147L13.9298 11.3934C12.6214 11.7055 12.0282 12.29 12.0282 12.29C12.0282 12.29 12.1868 12.2124 12.4639 12.094C14.2262 11.401 16.1506 11.4512 17.9321 12.3285C17.9321 12.3285 17.3377 11.7819 16.1098 11.4319L16.2183 11.3252C16.388 11.3258 17.2863 11.3573 18.2477 12.0602C18.2477 12.0602 19.3233 13.8977 19.3233 16.1552C19.2878 16.112 18.656 17.127 17.0303 17.162C17.0303 17.162 16.7549 16.8505 16.5589 16.5787C17.5098 16.3057 17.8656 15.7597 17.8656 15.7597C17.5535 15.9563 17.2688 16.0729 17.0378 16.1896C16.6826 16.3459 16.3268 16.4229 15.9715 16.5017C14.2892 16.7747 13.3448 16.3179 12.4523 15.9557L12.1472 15.8005C12.1472 15.8005 12.5024 16.3465 13.4153 16.6195C13.1756 16.8931 12.9382 17.204 12.9382 17.204C11.313 17.1655 10.7203 16.1505 10.7203 16.1505C10.7203 13.8895 11.7896 12.0555 11.7896 12.0555Z" fill="#888888"/>
<path d="M16.3472 15.45C16.762 15.45 17.0997 15.1 17.0997 14.6684C17.0997 14.2396 16.7637 13.8896 16.3472 13.8896V13.8914C15.9342 13.8914 15.5959 14.2402 15.5947 14.6719C15.5947 15.1 15.9325 15.45 16.3472 15.45Z" fill="#888888"/>
<path d="M13.6519 15.4503C14.0667 15.4503 14.4044 15.1003 14.4044 14.6686C14.4044 14.2399 14.069 13.8899 13.6542 13.8899L13.6519 13.8916C13.2372 13.8916 12.8994 14.2405 12.8994 14.6721C12.8994 15.1003 13.2372 15.4503 13.6519 15.4503Z" fill="#888888"/>
</g>
<defs>
<clipPath id="clip0_3306_4415">
<rect width="14" height="14" fill="white" transform="translate(8.00098 8.0002)"/>
</clipPath>
</defs>
</svg>
