<svg width="30" height="30" viewBox="0 0 30 30" fill="none" xmlns="http://www.w3.org/2000/svg">
<circle cx="15" cy="15" r="15" fill="#F0F0F0"/>
<g clip-path="url(#clip0_3306_4425)">
<path d="M6.99911 14.5211C6.99259 15.0881 7.34214 15.5985 7.87322 15.7973V13.3673C7.87322 13.3323 7.89069 13.2799 7.89069 13.2449C7.35602 13.4421 7.00042 13.9511 6.99911 14.5211Z" fill="#888888"/>
<path d="M11.7736 17.5278H9.4834L10.34 20.6396C10.4669 21.1145 10.8974 21.4446 11.389 21.4438C11.7387 21.448 12.0696 21.2858 12.2806 21.0068C12.4936 20.7414 12.5593 20.3868 12.4554 20.0627L11.7736 17.5278Z" fill="#888888"/>
<path d="M7.88965 13.2279H7.90712V13.2104C7.90712 13.2279 7.90712 13.2279 7.88965 13.2279Z" fill="#888888"/>
<path d="M20.4241 12.9828H20.2842V16.1297H20.4241C21.293 16.1297 21.9974 15.4252 21.9974 14.5563C21.9974 13.6873 21.293 12.9828 20.4241 12.9828Z" fill="#888888"/>
<path d="M8.39795 13.3673V15.8498C8.41686 16.4927 8.94362 17.0039 9.58674 17.0037H12.7685V12.2834H9.58674C8.95737 12.2834 8.39795 12.738 8.39795 13.3673Z" fill="#888888"/>
<path d="M13.2925 17.0735L19.761 19.6609V9.5561L13.2925 12.1435V17.0735Z" fill="#888888"/>
</g>
<defs>
<clipPath id="clip0_3306_4425">
<rect width="15" height="15" fill="white" transform="translate(6.99902 8.0002)"/>
</clipPath>
</defs>
</svg>
