<svg width="183" height="40" viewBox="0 0 183 40" fill="none" xmlns="http://www.w3.org/2000/svg">
<path d="M56.7328 25.9173C57.8068 25.9173 58.59 25.7902 59.0823 25.536C59.5746 25.2586 59.8207 24.7964 59.8207 24.1493C59.8207 23.5484 59.5522 23.0515 59.0152 22.6586C58.5005 22.2658 57.639 21.8382 56.4307 21.376C55.6923 21.0986 55.0098 20.8098 54.3832 20.5093C53.7791 20.1858 53.2532 19.816 52.8057 19.4C52.3581 18.984 52.0001 18.4871 51.7316 17.9093C51.4854 17.3084 51.3624 16.5804 51.3624 15.7253C51.3624 14.0613 51.9554 12.7555 53.1413 11.808C54.3273 10.8373 55.9384 10.352 57.9747 10.352C59.004 10.352 59.9886 10.456 60.9284 10.664C61.8682 10.8489 62.5731 11.0338 63.043 11.2186L62.3046 14.616C61.857 14.408 61.2864 14.2231 60.5927 14.0613C59.8991 13.8764 59.0935 13.784 58.1761 13.784C57.3481 13.784 56.6768 13.9342 56.1622 14.2346C55.6475 14.512 55.3902 14.9511 55.3902 15.552C55.3902 15.8524 55.4349 16.1182 55.5244 16.3493C55.6363 16.5804 55.8153 16.8 56.0615 17.008C56.3076 17.1929 56.6321 17.3893 57.0349 17.5973C57.4376 17.7822 57.9299 17.9786 58.5117 18.1866C59.4739 18.5564 60.2907 18.9262 60.962 19.296C61.6333 19.6426 62.1815 20.0471 62.6066 20.5093C63.0542 20.9484 63.3786 21.4569 63.58 22.0346C63.7814 22.6124 63.8821 23.3058 63.8821 24.1146C63.8821 25.848 63.2556 27.1653 62.0025 28.0666C60.7718 28.9449 59.004 29.384 56.6992 29.384C55.1552 29.384 53.9133 29.2453 52.9735 28.968C52.0337 28.7138 51.3736 28.5058 50.9932 28.344L51.698 24.8426C52.3022 25.0969 53.0182 25.3395 53.8462 25.5706C54.6965 25.8018 55.6587 25.9173 56.7328 25.9173Z" fill="url(#paint0_linear_2795_4578)"/>
<path d="M81.2362 28.3786C80.4531 28.5866 79.4349 28.7946 78.1818 29.0026C76.9287 29.2338 75.5526 29.3493 74.0533 29.3493C72.6436 29.3493 71.4576 29.1413 70.4954 28.7253C69.5556 28.3093 68.7948 27.7315 68.213 26.992C67.6536 26.2524 67.2508 25.3742 67.0047 24.3573C66.7586 23.3173 66.6355 22.1849 66.6355 20.96V10.8026H70.6968V20.3013C70.6968 22.2426 70.9654 23.6293 71.5024 24.4613C72.0618 25.2933 73.024 25.7093 74.389 25.7093C74.8813 25.7093 75.3959 25.6862 75.933 25.64C76.4924 25.5938 76.9064 25.536 77.1749 25.4666V10.8026H81.2362V28.3786Z" fill="url(#paint1_linear_2795_4578)"/>
<path d="M97.2134 19.816C97.2134 18.0364 96.8666 16.6266 96.1729 15.5866C95.5016 14.5466 94.4275 14.0266 92.9507 14.0266C92.2794 14.0266 91.6416 14.1306 91.0375 14.3386C90.4557 14.5466 89.9858 14.7778 89.6277 15.032V25.4666C89.9186 25.536 90.2878 25.6053 90.7354 25.6746C91.2053 25.7209 91.7647 25.744 92.4136 25.744C93.9129 25.744 95.0876 25.224 95.9379 24.184C96.7883 23.1209 97.2134 21.6649 97.2134 19.816ZM101.375 19.8853C101.375 21.3413 101.163 22.6586 100.738 23.8373C100.335 24.9929 99.742 25.9866 98.9588 26.8186C98.198 27.6506 97.2694 28.2862 96.1729 28.7253C95.0764 29.1644 93.8345 29.384 92.4472 29.384C91.1046 29.384 89.8179 29.28 88.5872 29.072C87.3789 28.864 86.3719 28.6329 85.5664 28.3786V2.72532L89.6277 2.03198V11.4266C90.0976 11.1724 90.6682 10.9413 91.3395 10.7333C92.0332 10.5253 92.794 10.4213 93.622 10.4213C94.8527 10.4213 95.9491 10.6524 96.9113 11.1146C97.8959 11.5538 98.7126 12.1893 99.3616 13.0213C100.01 13.8533 100.503 14.8586 100.838 16.0373C101.196 17.1929 101.375 18.4755 101.375 19.8853Z" fill="url(#paint2_linear_2795_4578)"/>
<path d="M109.119 25.9173C110.193 25.9173 110.976 25.7902 111.469 25.536C111.961 25.2586 112.207 24.7964 112.207 24.1493C112.207 23.5484 111.938 23.0515 111.401 22.6586C110.887 22.2658 110.025 21.8382 108.817 21.376C108.078 21.0986 107.396 20.8098 106.769 20.5093C106.165 20.1858 105.639 19.816 105.192 19.4C104.744 18.984 104.386 18.4871 104.118 17.9093C103.872 17.3084 103.749 16.5804 103.749 15.7253C103.749 14.0613 104.342 12.7555 105.528 11.808C106.714 10.8373 108.325 10.352 110.361 10.352C111.39 10.352 112.375 10.456 113.315 10.664C114.254 10.8489 114.959 11.0338 115.429 11.2186L114.691 14.616C114.243 14.408 113.673 14.2231 112.979 14.0613C112.285 13.8764 111.48 13.784 110.562 13.784C109.734 13.784 109.063 13.9342 108.548 14.2346C108.034 14.512 107.776 14.9511 107.776 15.552C107.776 15.8524 107.821 16.1182 107.911 16.3493C108.023 16.5804 108.202 16.8 108.448 17.008C108.694 17.1929 109.018 17.3893 109.421 17.5973C109.824 17.7822 110.316 17.9786 110.898 18.1866C111.86 18.5564 112.677 18.9262 113.348 19.296C114.019 19.6426 114.568 20.0471 114.993 20.5093C115.44 20.9484 115.765 21.4569 115.966 22.0346C116.168 22.6124 116.268 23.3058 116.268 24.1146C116.268 25.848 115.642 27.1653 114.389 28.0666C113.158 28.9449 111.39 29.384 109.085 29.384C107.541 29.384 106.3 29.2453 105.36 28.968C104.42 28.7138 103.76 28.5058 103.379 28.344L104.084 24.8426C104.688 25.0969 105.404 25.3395 106.232 25.5706C107.083 25.8018 108.045 25.9173 109.119 25.9173Z" fill="url(#paint3_linear_2795_4578)"/>
<path d="M135.099 19.8506C135.099 21.2835 134.898 22.5893 134.495 23.768C134.092 24.9466 133.522 25.952 132.783 26.784C132.045 27.616 131.15 28.2631 130.098 28.7253C129.069 29.1875 127.928 29.4186 126.675 29.4186C125.421 29.4186 124.28 29.1875 123.251 28.7253C122.222 28.2631 121.338 27.616 120.599 26.784C119.861 25.952 119.279 24.9466 118.854 23.768C118.451 22.5893 118.25 21.2835 118.25 19.8506C118.25 18.4178 118.451 17.1235 118.854 15.968C119.279 14.7893 119.861 13.784 120.599 12.952C121.36 12.12 122.255 11.4844 123.284 11.0453C124.314 10.5831 125.444 10.352 126.675 10.352C127.905 10.352 129.035 10.5831 130.065 11.0453C131.116 11.4844 132.011 12.12 132.75 12.952C133.488 13.784 134.059 14.7893 134.462 15.968C134.887 17.1235 135.099 18.4178 135.099 19.8506ZM130.937 19.8506C130.937 18.048 130.557 16.6266 129.796 15.5866C129.058 14.5235 128.017 13.992 126.675 13.992C125.332 13.992 124.28 14.5235 123.519 15.5866C122.781 16.6266 122.412 18.048 122.412 19.8506C122.412 21.6764 122.781 23.1209 123.519 24.184C124.28 25.2471 125.332 25.7786 126.675 25.7786C128.017 25.7786 129.058 25.2471 129.796 24.184C130.557 23.1209 130.937 21.6764 130.937 19.8506Z" fill="url(#paint4_linear_2795_4578)"/>
<path d="M137.471 19.8853C137.471 18.5449 137.672 17.2969 138.075 16.1413C138.478 14.9626 139.048 13.9458 139.787 13.0906C140.548 12.2355 141.465 11.5653 142.539 11.08C143.613 10.5946 144.822 10.352 146.164 10.352C147.82 10.352 149.386 10.664 150.863 11.288L149.991 14.72C149.521 14.512 148.984 14.3386 148.38 14.2C147.798 14.0613 147.171 13.992 146.5 13.992C144.911 13.992 143.703 14.512 142.875 15.552C142.047 16.5689 141.633 18.0133 141.633 19.8853C141.633 21.688 142.025 23.1209 142.808 24.184C143.591 25.224 144.911 25.744 146.768 25.744C147.462 25.744 148.145 25.6746 148.816 25.536C149.487 25.3973 150.069 25.224 150.561 25.016L151.132 28.4826C150.684 28.7138 150.002 28.9218 149.084 29.1066C148.189 29.2915 147.261 29.384 146.298 29.384C144.799 29.384 143.49 29.1529 142.371 28.6906C141.275 28.2053 140.357 27.5466 139.619 26.7146C138.903 25.8595 138.366 24.8542 138.008 23.6986C137.65 22.52 137.471 21.2489 137.471 19.8853Z" fill="url(#paint5_linear_2795_4578)"/>
<path d="M157.532 28.9333H153.471V10.8026H157.532V28.9333ZM157.968 5.49865C157.968 6.28443 157.722 6.90843 157.23 7.37065C156.738 7.83287 156.156 8.06398 155.485 8.06398C154.791 8.06398 154.198 7.83287 153.706 7.37065C153.213 6.90843 152.967 6.28443 152.967 5.49865C152.967 4.68976 153.213 4.0542 153.706 3.59198C154.198 3.12976 154.791 2.89865 155.485 2.89865C156.156 2.89865 156.738 3.12976 157.23 3.59198C157.722 4.0542 157.968 4.68976 157.968 5.49865Z" fill="url(#paint6_linear_2795_4578)"/>
<path d="M168.05 25.9866C169.303 25.9866 170.254 25.9173 170.903 25.7786V21.1333C170.679 21.064 170.355 20.9946 169.93 20.9253C169.505 20.856 169.035 20.8213 168.52 20.8213C168.073 20.8213 167.614 20.856 167.144 20.9253C166.696 20.9946 166.282 21.1218 165.902 21.3066C165.544 21.4915 165.253 21.7573 165.029 22.104C164.806 22.4275 164.694 22.8435 164.694 23.352C164.694 24.3458 164.996 25.0391 165.6 25.432C166.204 25.8018 167.021 25.9866 168.05 25.9866ZM167.714 10.352C169.057 10.352 170.187 10.5253 171.105 10.872C172.022 11.2186 172.749 11.704 173.286 12.328C173.846 12.952 174.237 13.7146 174.461 14.616C174.707 15.4942 174.83 16.4649 174.83 17.528V28.5173C174.204 28.656 173.253 28.8178 171.977 29.0026C170.724 29.2106 169.303 29.3146 167.714 29.3146C166.663 29.3146 165.701 29.2106 164.828 29.0026C163.955 28.7946 163.206 28.4595 162.579 27.9973C161.975 27.5351 161.494 26.9342 161.136 26.1946C160.8 25.4551 160.632 24.5422 160.632 23.456C160.632 22.416 160.822 21.5378 161.203 20.8213C161.606 20.1049 162.143 19.5271 162.814 19.088C163.485 18.6258 164.257 18.3022 165.13 18.1173C166.025 17.9093 166.954 17.8053 167.916 17.8053C168.363 17.8053 168.833 17.84 169.326 17.9093C169.818 17.9555 170.344 18.048 170.903 18.1866V17.4933C170.903 17.008 170.847 16.5458 170.735 16.1066C170.623 15.6675 170.422 15.2862 170.131 14.9626C169.863 14.616 169.493 14.3502 169.024 14.1653C168.576 13.9804 168.005 13.888 167.312 13.888C166.372 13.888 165.51 13.9573 164.727 14.096C163.944 14.2346 163.306 14.3964 162.814 14.5813L162.311 11.184C162.825 10.9991 163.575 10.8142 164.559 10.6293C165.544 10.4444 166.596 10.352 167.714 10.352Z" fill="url(#paint7_linear_2795_4578)"/>
<path d="M178.898 28.9333V2.72532L182.959 2.03198V28.9333H178.898Z" fill="url(#paint8_linear_2795_4578)"/>
<path fill-rule="evenodd" clip-rule="evenodd" d="M38.7288 20C38.7288 31.0457 30.0591 40 19.3644 40C8.66974 40 0 31.0457 0 20C0 8.95431 8.66974 0 19.3644 0C30.0591 0 38.7288 8.95431 38.7288 20ZM19.2987 4.26517C15.3417 4.26517 12.1339 7.57826 12.1339 11.6652V16.4652C12.1339 20.5521 15.3417 23.8652 19.2987 23.8652C19.8541 23.8652 20.3948 23.7999 20.9139 23.6764C21.2302 23.6011 21.3199 23.2116 21.0884 22.9832L21.0429 22.9384L16.9154 18.8667C16.2753 18.2246 15.8777 17.3262 15.8777 16.3318V11.7985C15.8777 9.8471 17.4093 8.26517 19.2987 8.26517C21.1881 8.26517 22.7197 9.8471 22.7197 11.7985V11.9948C22.7197 13.0286 23.5578 13.8667 24.5916 13.8667C25.6255 13.8667 26.4635 13.0286 26.4635 11.9948V11.6652C26.4635 7.57826 23.2557 4.26517 19.2987 4.26517ZM26.4647 27.9333C26.4647 32.0202 23.2569 35.3333 19.2999 35.3333C15.3429 35.3333 12.1351 32.0202 12.1351 27.9333V27.6052C12.1351 26.5714 12.9731 25.7333 14.007 25.7333C15.0408 25.7333 15.8789 26.5714 15.8789 27.6052V27.8C15.8789 29.7514 17.4105 31.3333 19.2999 31.3333C21.1893 31.3333 22.7209 29.7514 22.7209 27.8V23.2667C22.7209 22.2723 22.3233 21.3739 21.6832 20.7318L17.5557 16.6601L17.5102 16.6153C17.2787 16.3869 17.3684 15.9974 17.6847 15.9221C18.2038 15.7986 18.7445 15.7333 19.2999 15.7333C23.2569 15.7333 26.4647 19.0464 26.4647 23.1333V27.9333Z" fill="url(#paint9_linear_2795_4578)"/>
<defs>
<linearGradient id="paint0_linear_2795_4578" x1="118.048" y1="-3.86668" x2="118.048" y2="36" gradientUnits="userSpaceOnUse">
<stop offset="0.109978" stop-color="#F40183"/>
<stop offset="1" stop-color="#7D0495"/>
</linearGradient>
<linearGradient id="paint1_linear_2795_4578" x1="118.048" y1="-3.86668" x2="118.048" y2="36" gradientUnits="userSpaceOnUse">
<stop offset="0.109978" stop-color="#F40183"/>
<stop offset="1" stop-color="#7D0495"/>
</linearGradient>
<linearGradient id="paint2_linear_2795_4578" x1="118.048" y1="-3.86668" x2="118.048" y2="36" gradientUnits="userSpaceOnUse">
<stop offset="0.109978" stop-color="#F40183"/>
<stop offset="1" stop-color="#7D0495"/>
</linearGradient>
<linearGradient id="paint3_linear_2795_4578" x1="118.048" y1="-3.86668" x2="118.048" y2="36" gradientUnits="userSpaceOnUse">
<stop offset="0.109978" stop-color="#F40183"/>
<stop offset="1" stop-color="#7D0495"/>
</linearGradient>
<linearGradient id="paint4_linear_2795_4578" x1="118.048" y1="-3.86668" x2="118.048" y2="36" gradientUnits="userSpaceOnUse">
<stop offset="0.109978" stop-color="#F40183"/>
<stop offset="1" stop-color="#7D0495"/>
</linearGradient>
<linearGradient id="paint5_linear_2795_4578" x1="118.048" y1="-3.86668" x2="118.048" y2="36" gradientUnits="userSpaceOnUse">
<stop offset="0.109978" stop-color="#F40183"/>
<stop offset="1" stop-color="#7D0495"/>
</linearGradient>
<linearGradient id="paint6_linear_2795_4578" x1="118.048" y1="-3.86668" x2="118.048" y2="36" gradientUnits="userSpaceOnUse">
<stop offset="0.109978" stop-color="#F40183"/>
<stop offset="1" stop-color="#7D0495"/>
</linearGradient>
<linearGradient id="paint7_linear_2795_4578" x1="118.048" y1="-3.86668" x2="118.048" y2="36" gradientUnits="userSpaceOnUse">
<stop offset="0.109978" stop-color="#F40183"/>
<stop offset="1" stop-color="#7D0495"/>
</linearGradient>
<linearGradient id="paint8_linear_2795_4578" x1="118.048" y1="-3.86668" x2="118.048" y2="36" gradientUnits="userSpaceOnUse">
<stop offset="0.109978" stop-color="#F40183"/>
<stop offset="1" stop-color="#7D0495"/>
</linearGradient>
<linearGradient id="paint9_linear_2795_4578" x1="19.3644" y1="0" x2="19.3644" y2="40" gradientUnits="userSpaceOnUse">
<stop stop-color="#F50083"/>
<stop offset="1" stop-color="#720497"/>
</linearGradient>
</defs>
</svg>
