<svg width="30" height="30" viewBox="0 0 30 30" fill="none" xmlns="http://www.w3.org/2000/svg">
<circle cx="15" cy="15" r="15" fill="#F0F0F0"/>
<g clip-path="url(#clip0_3306_4409)">
<path d="M23.001 10.8493C22.4432 11.0939 21.8488 11.2561 21.2291 11.3349C21.8666 10.9543 22.3532 10.3561 22.5819 9.6352C21.9875 9.98957 21.3313 10.2399 20.6319 10.3796C20.0675 9.77864 19.2632 9.40645 18.3857 9.40645C16.6832 9.40645 15.3125 10.7883 15.3125 12.4824C15.3125 12.7261 15.3332 12.9605 15.3838 13.1836C12.8272 13.0589 10.565 11.8336 9.04535 9.96707C8.78004 10.4274 8.62441 10.9543 8.62441 11.5214C8.62441 12.5864 9.17285 13.5305 9.99035 14.0771C9.49629 14.0677 9.0116 13.9243 8.60098 13.6983C8.60098 13.7077 8.60098 13.7199 8.60098 13.7321C8.60098 15.2264 9.66691 16.4677 11.0647 16.7536C10.8144 16.8221 10.5416 16.8549 10.2585 16.8549C10.0616 16.8549 9.86285 16.8436 9.67629 16.8024C10.0747 18.0202 11.2054 18.9155 12.5497 18.9446C11.5035 19.763 10.175 20.2561 8.73691 20.2561C8.48473 20.2561 8.24285 20.2449 8.00098 20.2139C9.36316 21.0924 10.9775 21.5939 12.7185 21.5939C18.3772 21.5939 21.471 16.9064 21.471 12.8433C21.471 12.7074 21.4663 12.5761 21.4597 12.4458C22.07 12.0127 22.5829 11.4718 23.001 10.8493Z" fill="#888888"/>
</g>
<defs>
<clipPath id="clip0_3306_4409">
<rect width="15" height="15" fill="white" transform="translate(8.00098 8.0002)"/>
</clipPath>
</defs>
</svg>
